<mxfile host="65bd71144e">
    <diagram id="Dw0ZGY0rXRj3lTV4KqRN" name="페이지-1">
        <mxGraphModel dx="2069" dy="496" grid="1" gridSize="10" guides="1" tooltips="1" connect="1" arrows="1" fold="1" page="1" pageScale="1" pageWidth="827" pageHeight="1169" math="0" shadow="0">
            <root>
                <mxCell id="0"/>
                <mxCell id="1" parent="0"/>
                <mxCell id="2" value="&lt;font style=&quot;font-size: 35px;&quot;&gt;테스트&lt;/font&gt;" style="rounded=1;whiteSpace=wrap;html=1;fillColor=#333333;strokeColor=#6c8ebf;" parent="1" vertex="1">
                    <mxGeometry x="344" y="260" width="140" height="60" as="geometry"/>
                </mxCell>
                <mxCell id="3" value="&lt;span style=&quot;font-size: 35px;&quot;&gt;정적 테스트&lt;/span&gt;" style="rounded=1;whiteSpace=wrap;html=1;fillColor=#FFFFCC;strokeColor=#FFFFCC;" parent="1" vertex="1">
                    <mxGeometry x="21" y="410" width="200" height="60" as="geometry"/>
                </mxCell>
                <mxCell id="4" value="&lt;font style=&quot;font-size: 35px;&quot;&gt;동적 테스트&lt;/font&gt;" style="rounded=1;whiteSpace=wrap;html=1;fillColor=#CCE5FF;" parent="1" vertex="1">
                    <mxGeometry x="640" y="410" width="200" height="60" as="geometry"/>
                </mxCell>
                <mxCell id="12" value="" style="shape=link;html=1;fontSize=35;exitX=0.5;exitY=1;exitDx=0;exitDy=0;entryX=0.5;entryY=0;entryDx=0;entryDy=0;" parent="1" source="2" target="4" edge="1">
                    <mxGeometry width="100" relative="1" as="geometry">
                        <mxPoint x="430" y="370" as="sourcePoint"/>
                        <mxPoint x="680" y="360" as="targetPoint"/>
                        <Array as="points">
                            <mxPoint x="414" y="360"/>
                            <mxPoint x="740" y="360"/>
                        </Array>
                    </mxGeometry>
                </mxCell>
                <mxCell id="13" value="" style="shape=link;html=1;fontSize=35;exitX=0.5;exitY=-0.016;exitDx=0;exitDy=0;exitPerimeter=0;" parent="1" source="3" edge="1">
                    <mxGeometry width="100" relative="1" as="geometry">
                        <mxPoint x="90" y="360" as="sourcePoint"/>
                        <mxPoint x="420" y="360" as="targetPoint"/>
                        <Array as="points">
                            <mxPoint x="121" y="360"/>
                        </Array>
                    </mxGeometry>
                </mxCell>
                <mxCell id="18" value="&lt;p style=&quot;line-height: 68%;&quot;&gt;&lt;font style=&quot;font-size: 24px;&quot;&gt;정적 분석&lt;/font&gt;&lt;/p&gt;" style="rounded=0;whiteSpace=wrap;html=1;fontSize=36;" parent="1" vertex="1">
                    <mxGeometry x="150" y="600" width="204" height="50" as="geometry"/>
                </mxCell>
                <mxCell id="19" value="&lt;p style=&quot;line-height: 68%;&quot;&gt;&lt;span style=&quot;font-size: 24px;&quot;&gt;리뷰&lt;/span&gt;&lt;/p&gt;" style="rounded=0;whiteSpace=wrap;html=1;fontSize=36;" parent="1" vertex="1">
                    <mxGeometry x="-140" y="600" width="211" height="50" as="geometry"/>
                </mxCell>
                <mxCell id="20" value="" style="endArrow=none;html=1;fontSize=24;exitX=0.5;exitY=0;exitDx=0;exitDy=0;rounded=0;" parent="1" source="19" edge="1">
                    <mxGeometry width="50" height="50" relative="1" as="geometry">
                        <mxPoint x="-9" y="510" as="sourcePoint"/>
                        <mxPoint x="120" y="470" as="targetPoint"/>
                        <Array as="points">
                            <mxPoint x="-34" y="540"/>
                            <mxPoint x="120" y="540"/>
                        </Array>
                    </mxGeometry>
                </mxCell>
                <mxCell id="21" value="" style="endArrow=none;html=1;rounded=0;fontSize=24;entryX=0.493;entryY=0.012;entryDx=0;entryDy=0;entryPerimeter=0;" parent="1" target="18" edge="1">
                    <mxGeometry width="50" height="50" relative="1" as="geometry">
                        <mxPoint x="121" y="540" as="sourcePoint"/>
                        <mxPoint x="351" y="530" as="targetPoint"/>
                        <Array as="points">
                            <mxPoint x="250" y="540"/>
                        </Array>
                    </mxGeometry>
                </mxCell>
                <mxCell id="28" value="&lt;p style=&quot;line-height: 68%;&quot;&gt;&lt;span style=&quot;font-size: 24px;&quot;&gt;블랙박스 테스트&lt;/span&gt;&lt;/p&gt;" style="rounded=0;whiteSpace=wrap;html=1;fontSize=36;" parent="1" vertex="1">
                    <mxGeometry x="400" y="600" width="210" height="50" as="geometry"/>
                </mxCell>
                <mxCell id="29" value="&lt;p style=&quot;line-height: 68%;&quot;&gt;&lt;span style=&quot;font-size: 24px;&quot;&gt;화이트박스 테스트&lt;/span&gt;&lt;/p&gt;" style="rounded=0;whiteSpace=wrap;html=1;fontSize=36;" parent="1" vertex="1">
                    <mxGeometry x="637.5" y="600" width="205" height="50" as="geometry"/>
                </mxCell>
                <mxCell id="30" value="&lt;p style=&quot;line-height: 68%;&quot;&gt;&lt;font style=&quot;font-size: 24px;&quot;&gt;탐색적 테스트&lt;/font&gt;&lt;/p&gt;" style="rounded=0;whiteSpace=wrap;html=1;fontSize=36;" parent="1" vertex="1">
                    <mxGeometry x="870" y="600" width="210" height="50" as="geometry"/>
                </mxCell>
                <mxCell id="33" value="" style="endArrow=none;html=1;rounded=0;fontSize=18;entryX=0.5;entryY=1;entryDx=0;entryDy=0;exitX=0.453;exitY=-0.011;exitDx=0;exitDy=0;exitPerimeter=0;" parent="1" source="28" target="4" edge="1">
                    <mxGeometry width="50" height="50" relative="1" as="geometry">
                        <mxPoint x="440" y="540" as="sourcePoint"/>
                        <mxPoint x="690" y="490" as="targetPoint"/>
                        <Array as="points">
                            <mxPoint x="495" y="540"/>
                            <mxPoint x="740" y="540"/>
                        </Array>
                    </mxGeometry>
                </mxCell>
                <mxCell id="34" value="" style="endArrow=none;html=1;rounded=0;fontSize=18;exitX=0.5;exitY=0;exitDx=0;exitDy=0;" parent="1" source="29" edge="1">
                    <mxGeometry width="50" height="50" relative="1" as="geometry">
                        <mxPoint x="750" y="610" as="sourcePoint"/>
                        <mxPoint x="740" y="540" as="targetPoint"/>
                    </mxGeometry>
                </mxCell>
                <mxCell id="35" value="" style="endArrow=none;html=1;rounded=0;fontSize=18;entryX=0.5;entryY=0;entryDx=0;entryDy=0;" parent="1" target="30" edge="1">
                    <mxGeometry width="50" height="50" relative="1" as="geometry">
                        <mxPoint x="740" y="540" as="sourcePoint"/>
                        <mxPoint x="1110" y="540" as="targetPoint"/>
                        <Array as="points">
                            <mxPoint x="975" y="540"/>
                        </Array>
                    </mxGeometry>
                </mxCell>
                <mxCell id="36" value="&lt;font style=&quot;font-size: 24px;&quot;&gt;일반회원&amp;nbsp;&lt;/font&gt;" style="rounded=0;whiteSpace=wrap;html=1;fillColor=#E6E6E6;fontColor=#000000;strokeColor=#080808;" vertex="1" parent="1">
                    <mxGeometry x="1450" y="240" width="190" height="60" as="geometry"/>
                </mxCell>
                <mxCell id="37" value="&lt;font style=&quot;font-size: 24px;&quot;&gt;GOLD회원&lt;/font&gt;" style="rounded=0;whiteSpace=wrap;html=1;fillColor=#FFFFCC;fontColor=#000000;strokeColor=#000000;" vertex="1" parent="1">
                    <mxGeometry x="1640" y="240" width="190" height="60" as="geometry"/>
                </mxCell>
                <mxCell id="38" value="&lt;font style=&quot;font-size: 24px;&quot;&gt;PLATINUM회원&lt;/font&gt;" style="rounded=0;whiteSpace=wrap;html=1;fillColor=#60a917;fontColor=#000000;strokeColor=#000000;" vertex="1" parent="1">
                    <mxGeometry x="1830" y="240" width="190" height="60" as="geometry"/>
                </mxCell>
                <mxCell id="39" value="&lt;font style=&quot;font-size: 24px;&quot;&gt;DIAMOND회원&lt;/font&gt;" style="rounded=0;whiteSpace=wrap;html=1;fillColor=#1ba1e2;fontColor=#000000;strokeColor=#000000;" vertex="1" parent="1">
                    <mxGeometry x="2020" y="240" width="190" height="60" as="geometry"/>
                </mxCell>
                <mxCell id="40" value="" style="endArrow=none;html=1;fontSize=24;fontColor=#000000;entryX=0;entryY=0;entryDx=0;entryDy=0;strokeWidth=3;strokeColor=#000000;" edge="1" parent="1" target="37">
                    <mxGeometry width="50" height="50" relative="1" as="geometry">
                        <mxPoint x="1640" y="320" as="sourcePoint"/>
                        <mxPoint x="1810" y="350" as="targetPoint"/>
                    </mxGeometry>
                </mxCell>
                <mxCell id="42" value="" style="endArrow=none;html=1;fontSize=24;fontColor=#000000;entryX=0;entryY=0;entryDx=0;entryDy=0;strokeWidth=3;strokeColor=#000000;" edge="1" parent="1">
                    <mxGeometry width="50" height="50" relative="1" as="geometry">
                        <mxPoint x="1830" y="320" as="sourcePoint"/>
                        <mxPoint x="1830" y="240" as="targetPoint"/>
                    </mxGeometry>
                </mxCell>
                <mxCell id="43" value="" style="endArrow=none;html=1;fontSize=24;fontColor=#000000;entryX=0;entryY=0;entryDx=0;entryDy=0;strokeWidth=3;strokeColor=#000000;" edge="1" parent="1">
                    <mxGeometry width="50" height="50" relative="1" as="geometry">
                        <mxPoint x="2019" y="320" as="sourcePoint"/>
                        <mxPoint x="2019.43" y="240" as="targetPoint"/>
                    </mxGeometry>
                </mxCell>
                <mxCell id="49" value="&lt;font style=&quot;font-size: 18px;&quot;&gt;100만원&lt;/font&gt;" style="text;html=1;strokeColor=none;fillColor=none;align=center;verticalAlign=middle;whiteSpace=wrap;rounded=0;fontSize=9;fontColor=#000000;" vertex="1" parent="1">
                    <mxGeometry x="1600" y="320" width="90" height="30" as="geometry"/>
                </mxCell>
                <mxCell id="52" value="그룹별 대표값 선정&lt;br&gt;&lt;br&gt;일반회원) X = 50만원&lt;br&gt;GOLD회원) X = 400만원&lt;br&gt;PLATINUM회원) X = 700만원&lt;br&gt;DIAMOND회원) X = 1억원" style="rounded=0;whiteSpace=wrap;html=1;strokeColor=#000000;fontSize=13;fontColor=#000000;fillColor=#575151;" vertex="1" parent="1">
                    <mxGeometry x="1450" y="100" width="250" height="110" as="geometry"/>
                </mxCell>
                <mxCell id="54" value="&lt;font style=&quot;font-size: 18px;&quot;&gt;500만원&lt;/font&gt;" style="text;html=1;strokeColor=none;fillColor=none;align=center;verticalAlign=middle;whiteSpace=wrap;rounded=0;fontSize=9;fontColor=#000000;" vertex="1" parent="1">
                    <mxGeometry x="1790" y="320" width="90" height="30" as="geometry"/>
                </mxCell>
                <mxCell id="55" value="&lt;font style=&quot;font-size: 18px;&quot;&gt;1000만원&lt;/font&gt;" style="text;html=1;strokeColor=none;fillColor=none;align=center;verticalAlign=middle;whiteSpace=wrap;rounded=0;fontSize=9;fontColor=#000000;" vertex="1" parent="1">
                    <mxGeometry x="1978" y="320" width="90" height="30" as="geometry"/>
                </mxCell>
                <mxCell id="56" value="&lt;font style=&quot;font-size: 24px;&quot;&gt;DIAMOND회원&lt;/font&gt;" style="rounded=0;whiteSpace=wrap;html=1;fillColor=#1ba1e2;fontColor=#000000;strokeColor=#000000;" vertex="1" parent="1">
                    <mxGeometry x="2570" y="210" width="190" height="60" as="geometry"/>
                </mxCell>
                <mxCell id="57" value="&lt;font style=&quot;font-size: 20px;&quot;&gt;... 97, 98, 99&lt;/font&gt;" style="rounded=0;whiteSpace=wrap;html=1;fillColor=#E6E6E6;fontColor=#000000;strokeColor=#080808;" vertex="1" parent="1">
                    <mxGeometry x="1450" y="570" width="190" height="60" as="geometry"/>
                </mxCell>
                <mxCell id="58" value="&lt;font style=&quot;font-size: 20px;&quot;&gt;100, 101 ... 498, 499&lt;/font&gt;" style="rounded=0;whiteSpace=wrap;html=1;fillColor=#FFFFCC;fontColor=#000000;strokeColor=#000000;" vertex="1" parent="1">
                    <mxGeometry x="1640" y="570" width="190" height="60" as="geometry"/>
                </mxCell>
                <mxCell id="59" value="&lt;font style=&quot;font-size: 20px;&quot;&gt;500, 501 ... 999&amp;nbsp;&lt;/font&gt;" style="rounded=0;whiteSpace=wrap;html=1;fillColor=#60a917;fontColor=#000000;strokeColor=#000000;" vertex="1" parent="1">
                    <mxGeometry x="1830" y="570" width="190" height="60" as="geometry"/>
                </mxCell>
                <mxCell id="60" value="&lt;font style=&quot;font-size: 20px;&quot;&gt;1000, 1001, 1002...&lt;/font&gt;" style="rounded=0;whiteSpace=wrap;html=1;fillColor=#1ba1e2;fontColor=#000000;strokeColor=#000000;" vertex="1" parent="1">
                    <mxGeometry x="2020" y="570" width="190" height="60" as="geometry"/>
                </mxCell>
                <mxCell id="61" value="" style="endArrow=none;html=1;fontSize=24;fontColor=#000000;entryX=0;entryY=0;entryDx=0;entryDy=0;strokeWidth=3;strokeColor=#000000;" edge="1" parent="1" target="58">
                    <mxGeometry width="50" height="50" relative="1" as="geometry">
                        <mxPoint x="1640" y="650.0000000000001" as="sourcePoint"/>
                        <mxPoint x="1810" y="680" as="targetPoint"/>
                    </mxGeometry>
                </mxCell>
                <mxCell id="62" value="" style="endArrow=none;html=1;fontSize=24;fontColor=#000000;entryX=0;entryY=0;entryDx=0;entryDy=0;strokeWidth=3;strokeColor=#000000;" edge="1" parent="1">
                    <mxGeometry width="50" height="50" relative="1" as="geometry">
                        <mxPoint x="1830" y="650.0000000000001" as="sourcePoint"/>
                        <mxPoint x="1830" y="570" as="targetPoint"/>
                    </mxGeometry>
                </mxCell>
                <mxCell id="63" value="" style="endArrow=none;html=1;fontSize=24;fontColor=#000000;entryX=0;entryY=0;entryDx=0;entryDy=0;strokeWidth=3;strokeColor=#000000;" edge="1" parent="1">
                    <mxGeometry width="50" height="50" relative="1" as="geometry">
                        <mxPoint x="2019" y="650.0000000000001" as="sourcePoint"/>
                        <mxPoint x="2019.4300000000003" y="570" as="targetPoint"/>
                    </mxGeometry>
                </mxCell>
                <mxCell id="64" value="&lt;font style=&quot;font-size: 18px;&quot;&gt;100만원&lt;/font&gt;" style="text;html=1;strokeColor=none;fillColor=none;align=center;verticalAlign=middle;whiteSpace=wrap;rounded=0;fontSize=9;fontColor=#000000;" vertex="1" parent="1">
                    <mxGeometry x="1600" y="650" width="90" height="30" as="geometry"/>
                </mxCell>
                <mxCell id="65" value="&lt;font style=&quot;font-size: 18px;&quot;&gt;500만원&lt;/font&gt;" style="text;html=1;strokeColor=none;fillColor=none;align=center;verticalAlign=middle;whiteSpace=wrap;rounded=0;fontSize=9;fontColor=#000000;" vertex="1" parent="1">
                    <mxGeometry x="1790" y="650" width="90" height="30" as="geometry"/>
                </mxCell>
                <mxCell id="66" value="&lt;font style=&quot;font-size: 18px;&quot;&gt;1000만원&lt;/font&gt;" style="text;html=1;strokeColor=none;fillColor=none;align=center;verticalAlign=middle;whiteSpace=wrap;rounded=0;fontSize=9;fontColor=#000000;" vertex="1" parent="1">
                    <mxGeometry x="1978" y="650" width="90" height="30" as="geometry"/>
                </mxCell>
                <mxCell id="67" value="예) GOLD회원 경계값&lt;br&gt;&lt;br&gt;X) = 99, 100, 499, 500" style="rounded=0;whiteSpace=wrap;html=1;strokeColor=#000000;fontSize=13;fontColor=#000000;fillColor=#575151;" vertex="1" parent="1">
                    <mxGeometry x="1450" y="500" width="250" height="60" as="geometry"/>
                </mxCell>
            </root>
        </mxGraphModel>
    </diagram>
</mxfile>